<?xml version="1.0" encoding="UTF-8" standalone="no"?>
<!-- Created with Inkscape (http://www.inkscape.org/) -->

<svg width="130.45mm" height="132.82516mm" viewBox="0 0 130.45 132.82517" version="1.1" id="svg1" xml:space="preserve"
  inkscape:version="1.3.1 (91b66b0783, 2023-11-16)" sodipodi:docname="furway-icon-white.svg"
  xmlns:inkscape="http://www.inkscape.org/namespaces/inkscape"
  xmlns:sodipodi="http://sodipodi.sourceforge.net/DTD/sodipodi-0.dtd" xmlns="http://www.w3.org/2000/svg"
  xmlns:svg="http://www.w3.org/2000/svg">
  <sodipodi:namedview id="namedview1" pagecolor="#ffffff" bordercolor="#999999" borderopacity="1"
    inkscape:showpageshadow="2" inkscape:pageopacity="0" inkscape:pagecheckerboard="0" inkscape:deskcolor="#d1d1d1"
    inkscape:document-units="mm" inkscape:zoom="1.4142136" inkscape:cx="258.09398" inkscape:cy="329.51176"
    inkscape:window-width="2558" inkscape:window-height="1408" inkscape:window-x="2553" inkscape:window-y="1440"
    inkscape:window-maximized="0" inkscape:current-layer="g268" />
  <defs id="defs1" />
  <g inkscape:label="Layer 1" inkscape:groupmode="layer" id="layer1" transform="translate(-40.55803,-39.14152)">
    <g id="g268" transform="translate(-198.77407,226.87765)">
      <path id="path268" style="fill:#00000000;stroke-width:0.353553"
        transform="matrix(0.26458333,0,0,0.26458333,13.758345,11.773946)"
        d="m 1194.9297,-509.36328 c -10.409,0.35986 -17.3274,1.67697 -23.8613,4.94922 -3.1965,1.60077 -5.8163,3.44743 -11.2051,7.77929 -8.6846,6.98114 -12.8643,11.75025 -17.3789,19.87305 -1.1153,2.00641 -2.6335,4.60324 -2.9063,5.03516 -1.4369,2.2754 -2.3669,4.57665 -3.6621,7.69336 -1.2952,3.1167 -2.6314,6.61552 -3.6465,9.66797 -1.109,3.33521 -2.1134,7.48808 -2.7773,11.33398 -0.892,5.16622 -1.082,7.72358 -1.082,14.70117 a 7.4434513,7.4434513 0 0 0 0,0.002 c 0,6.30091 0.198,9.62434 0.8476,13.85546 0.8459,5.50959 0.4258,7.74991 3.4863,11.4375 0.1924,0.23182 0.3659,0.43392 0.5977,0.68164 0.1161,0.12407 0.2297,0.24792 0.4922,0.49024 0.1312,0.12116 0.2776,0.26523 0.668,0.55273 0.1951,0.14375 0.4398,0.32709 0.957,0.59961 0.2586,0.13627 0.5864,0.29944 1.1015,0.47266 0.2576,0.0866 0.5626,0.17493 0.9473,0.25 0.3847,0.0751 1.4273,0.13867 1.4277,0.13867 2.172,0 3.0768,-0.27862 4.9219,-0.60156 1.8451,-0.32294 4.0183,-0.75057 6.2364,-1.21875 4.436,-0.93637 8.5436,-1.8339 11.4804,-2.85742 0.4925,-0.17162 3.979,-1.37372 7.5742,-2.61133 3.6718,-1.26397 6.6578,-2.27964 8.6602,-3.14453 1.5021,-0.64872 2.1714,-1.11897 3.4375,-1.88282 1.266,-0.76385 2.7435,-1.69057 4.2676,-2.67187 3.048,-1.9626 6.1389,-4.0273 8.1758,-5.58008 10.3834,-7.91576 23.3188,-20.75913 30.7382,-30.61719 a 7.4434513,7.4434513 0 0 0 0,-0.002 c 4.2842,-5.69252 8.7271,-14.83469 14.918,-29.22266 0.9233,-2.14582 1.8421,-4.55564 2.5742,-6.66992 0.3661,-1.05714 0.6809,-2.02773 0.9375,-2.91797 0.2567,-0.89023 0.6094,-0.78614 0.6094,-3.5 0,-2.88137 -1.1649,-4.13501 -1.7676,-4.86132 -0.6027,-0.72632 -1.0244,-1.04411 -1.375,-1.31055 -0.7011,-0.53289 -1.1587,-0.77156 -1.625,-1.01367 -0.9326,-0.48424 -1.8242,-0.84441 -2.834,-1.18946 -1.4039,-0.47976 -5.1842,-1.77295 -8.3925,-2.87109 -10.3394,-3.53886 -21.4208,-5.15406 -32.543,-4.76953 z" />
      <path id="path267" style="fill:#00000000;stroke-width:0.5"
        transform="matrix(0.26458333,0,0,0.26458333,13.758345,11.773946)"
        d="m 993.19141,-508.55078 c -11.88791,0.46923 -24.32509,3.23443 -35.47657,8.01953 -1.20296,0.51619 -2.43849,0.38567 -4.58789,3.0625 -1.0747,1.33842 -1.65689,3.48342 -1.66406,4.73828 -0.007,1.25486 0.1746,1.84708 0.27148,2.30664 0.52267,2.4791 1.35132,4.29744 2.56836,7.27735 1.21704,2.9799 2.75805,6.53723 4.37696,10.1289 3.23781,7.18335 6.37287,13.93176 8.76758,17.65625 5.45736,8.4879 17.46188,21.17711 27.26367,29.36719 6.36166,5.3156 15.04766,11.54291 20.56446,14.35742 3.4168,1.74313 8.3449,3.3741 14.4473,5.23828 6.1023,1.86419 13.026,3.73737 19.0703,5.08594 2.8683,0.63998 5.912,0.81839 9.0468,-0.76953 3.1349,-1.58792 5.3497,-5.61072 5.3497,-8.92383 0,0.553 0.049,-0.60462 0.1816,-1.66211 0.1325,-1.05748 0.3222,-2.37924 0.5273,-3.6289 1.3389,-8.15569 0.9487,-20.76426 -0.791,-29.07422 -2.1269,-10.16033 -6.6246,-21.07975 -12.8164,-31.52149 -5.0413,-8.50146 -8.7347,-12.6449 -17.6113,-19.74023 -9.2443,-7.38929 -16.5383,-10.4296 -27.8438,-11.58594 -3.7806,-0.3867 -7.68223,-0.48842 -11.64449,-0.33203 z" />
      <path style="color-scheme: dark; fill:rgb(254 254 254);"
        d="m 303.35597,-54.940691 c -0.0144,-0.014 -0.33208,-0.0671 -0.70592,-0.11792 -0.54394,-0.0739 -0.78867,-0.14171 -1.22519,-0.3394 -1.91064,-0.86528 -2.01644,-0.92438 -3.15043,-1.75985 -0.32025,-0.23594 -0.74777,-0.51823 -0.95004,-0.62729 -0.20227,-0.10906 -0.54126,-0.35459 -0.75332,-0.54561 -0.38433,-0.3462 -0.66068,-0.50729 -1.29999,-0.75777 -0.44182,-0.1731 -1.41669,-0.87523 -2.1756,-1.56693 -0.20244,-0.1845 -0.49218,-0.40935 -0.64388,-0.49966 -0.66757,-0.39742 -1.51922,-1.44356 -2.20078,-2.70338 -1.20743,-2.23185 -2.05409,-3.60311 -3.01446,-4.8823 -0.32059,-0.42701 -0.74235,-0.99852 -0.93725,-1.27002 -0.1949,-0.27151 -0.43655,-0.53506 -0.537,-0.58567 -0.34936,-0.17603 -0.66567,-0.50401 -0.66567,-0.69023 0,-0.14251 -0.13231,-0.29904 -0.75084,-0.88825 l -0.75084,-0.71525 -0.82924,0.0375 c -0.74481,0.0337 -0.91957,0.0208 -1.71621,-0.12607 -0.48782,-0.0899 -1.05992,-0.2146 -1.27132,-0.277 -0.2114,-0.0624 -0.42854,-0.11344 -0.48253,-0.11344 -0.165,0 0.0185,-0.16335 0.27419,-0.24408 0.41004,-0.12947 1.07951,-0.48429 1.32822,-0.70396 0.13485,-0.1191 0.31194,-0.25872 0.39355,-0.31026 0.15193,-0.096 0.13531,-0.23475 -0.0281,-0.23475 -0.0479,0 -0.47338,0.12063 -0.9456,0.26808 -1.06036,0.33109 -1.58467,0.41475 -2.30062,0.3671 -0.60142,-0.04 -1.00636,-0.13014 -1.45623,-0.32404 -0.16007,-0.069 -0.61503,-0.20962 -1.01102,-0.3125 -0.89503,-0.23255 -1.87654,-0.53881 -2.69726,-0.84162 -0.34586,-0.12761 -0.72455,-0.23202 -0.84154,-0.23202 -0.26656,0 -0.70424,-0.15929 -0.83647,-0.30442 -0.0552,-0.0605 -0.23444,-0.13931 -0.3984,-0.17504 -0.16396,-0.0357 -0.51877,-0.18259 -0.78846,-0.32636 -0.85006,-0.45314 -0.85977,-0.43742 0.24892,-0.40335 0.83356,0.0256 1.08039,0.011 1.68181,-0.0998 0.81949,-0.1509 2.09902,-0.47143 2.14456,-0.53724 0.0172,-0.0249 0.0865,-0.0758 0.15392,-0.11302 0.10151,-0.0561 0.0564,-0.0681 -0.26223,-0.0696 -0.48342,-0.002 -1.98116,-0.15403 -2.6924,-0.27278 -1.16959,-0.19529 -4.44958,-0.87531 -5.02122,-1.04102 -0.47542,-0.13781 -0.77223,-0.18267 -1.38443,-0.20923 -0.4286,-0.0186 -0.84232,-0.0585 -0.91939,-0.0886 -0.0798,-0.0312 -0.10058,-0.0568 -0.0482,-0.0595 0.0817,-0.004 0.0817,-0.0114 0,-0.0646 -0.0796,-0.0519 -0.0765,-0.0687 0.0227,-0.12551 0.0926,-0.053 0.0985,-0.0756 0.0307,-0.11743 -0.0657,-0.0406 -0.0602,-0.052 0.0253,-0.0528 0.0601,-5e-4 0.21177,-0.0448 0.33711,-0.0984 0.22292,-0.0954 0.22454,-0.0984 0.0746,-0.13874 -0.14388,-0.0387 -0.13366,-0.051 0.16733,-0.20147 0.1763,-0.0881 0.46591,-0.21568 0.64357,-0.2834 0.79585,-0.30335 1.46075,-0.61325 1.39748,-0.65135 -0.0379,-0.0229 0.17072,-0.13183 0.46368,-0.24219 0.29296,-0.11036 0.64164,-0.28937 0.77484,-0.3978 0.1332,-0.10843 0.39819,-0.24032 0.58886,-0.29308 0.19068,-0.0528 0.38218,-0.12864 0.42555,-0.16861 0.0811,-0.0747 0.0421,-0.27304 -0.0537,-0.27304 -0.0295,0 -0.48853,0.10482 -1.0201,0.23293 -1.05492,0.25424 -1.73742,0.52982 -2.51358,1.01494 -0.47153,0.29472 -0.92551,0.5135 -0.97185,0.46834 -0.0128,-0.0125 0.0567,-0.14573 0.15457,-0.29607 0.2069,-0.31787 1.03818,-0.98485 1.97242,-1.58257 l 0.65003,-0.41588 -2.02489,-0.0402 c -2.15738,-0.0428 -3.11532,-0.10148 -4.1474,-0.25393 -0.35366,-0.0522 -1.06365,-0.099 -1.57775,-0.10398 -0.51411,-0.005 -0.90562,-0.0185 -0.87003,-0.0302 0.0356,-0.0117 0.088,-0.081 0.11654,-0.15402 0.0735,-0.18833 0.70301,-0.49127 1.98507,-0.95528 1.23038,-0.44531 1.25548,-0.45667 1.84211,-0.8337 l 0.42387,-0.27243 -0.81075,0.0378 c -0.92646,0.0432 -2.41532,-0.0549 -3.0097,-0.19834 -0.23003,-0.0555 -0.83878,-0.11397 -1.44039,-0.13834 -0.94369,-0.0382 -1.08107,-0.0579 -1.45636,-0.20821 -0.48585,-0.19464 -0.72173,-0.44074 -0.56696,-0.59154 0.11411,-0.11118 0.66548,-0.1833 1.09193,-0.14282 0.23908,0.0227 0.37622,0.002 0.55018,-0.0844 0.14864,-0.0736 0.57245,-0.1568 1.18213,-0.2322 0.52273,-0.0647 1.08043,-0.14552 1.23932,-0.1797 0.51329,-0.11044 1.36152,-0.37255 1.36152,-0.42072 0,-0.0722 -0.41306,-0.10622 -1.74685,-0.14386 -1.56452,-0.0442 -3.13757,-0.12756 -4.53568,-0.24047 -1.10564,-0.0893 -3.29918,-0.35411 -3.6152,-0.43646 l -0.16841,-0.0439 0.38786,-0.34989 c 0.21333,-0.19244 0.69229,-0.57203 1.06435,-0.84354 1.25331,-0.91456 2.27272,-1.44621 3.66222,-1.90996 0.44385,-0.14813 0.81316,-0.27544 0.8207,-0.28291 0.008,-0.007 -0.36313,-0.0167 -0.82373,-0.0204 -2.25986,-0.0185 -4.7212,-0.83951 -7.48773,-2.49758 -0.77256,-0.46302 -1.17333,-0.65505 -2.14526,-1.02789 -2.62012,-1.0051 -4.7702,-2.02828 -5.83984,-2.77908 -0.24731,-0.17359 -0.59455,-0.34887 -0.8581,-0.43314 -0.24348,-0.0779 -0.38289,-0.14421 -0.30979,-0.14745 0.20394,-0.009 0.3304,-0.0713 0.28622,-0.141 -0.0253,-0.0399 0.008,-0.0505 0.0929,-0.029 0.073,0.0186 0.29673,-0.003 0.49713,-0.049 0.20039,-0.0456 1.00688,-0.20597 1.7922,-0.35648 1.77381,-0.339959 2.74119,-0.583379 4.01494,-1.010269 1.00551,-0.337 2.57417,-0.95318 2.68106,-1.05315 0.0354,-0.0331 -0.0718,-0.0545 -0.273,-0.0545 -0.18217,0 -0.6221,-0.0267 -0.97762,-0.0594 -0.35552,-0.0327 -1.12908,-0.0859 -1.71903,-0.11843 -1.43209,-0.0789 -3.40795,-0.46173 -3.69566,-0.71616 -0.0268,-0.0237 0.22144,-0.10557 0.55164,-0.18194 0.3302,-0.0764 0.80723,-0.22637 1.06006,-0.33334 0.68008,-0.28773 1.82559,-0.69885 3.31593,-1.19008 2.24553,-0.74016 3.43673,-1.25298 4.48994,-1.93298 l 0.42007,-0.27121 -0.25768,-0.0837 c -0.22457,-0.0729 -0.32185,-0.0715 -0.75718,0.0113 -0.27472,0.0522 -0.68278,0.11256 -0.90679,0.13403 -0.45159,0.0433 -1.35674,-0.0202 -1.31122,-0.092 0.0305,-0.048 0.5643,-0.13975 1.44259,-0.24788 0.28649,-0.0353 0.53166,-0.0746 0.54482,-0.0874 0.0646,-0.0629 -1.51839,-0.51804 -2.38351,-0.68524 -2.13135,-0.41193 -3.09681,-0.76545 -3.05283,-1.11785 0.0162,-0.13003 -0.0151,-0.16084 -0.22634,-0.22235 -0.35777,-0.1042 -0.58758,-0.23473 -0.80924,-0.45965 l -0.19631,-0.19919 0.44148,0.005 c 0.24282,0.003 0.74488,0.0479 1.11571,0.10089 0.37082,0.053 1.07416,0.11266 1.56297,0.13264 0.48881,0.02 1.38459,0.0754 1.99062,0.12306 1.66678,0.13121 2.05227,0.11683 3.24993,-0.12128 0.57309,-0.11394 1.14064,-0.23466 1.26123,-0.26828 0.26183,-0.073 1.63571,-1.31267 1.56984,-1.41652 -0.0291,-0.0459 -0.38071,-0.0567 -1.1606,-0.0357 -0.9329,0.0251 -1.27672,0.009 -2.06888,-0.0989 -1.57686,-0.21417 -2.30544,-0.4337 -2.7763,-0.83653 -0.23791,-0.20352 -0.27849,-0.28 -0.15044,-0.2835 1.76818,-0.0483 3.46348,-0.1808 3.93808,-0.3078 l 0.18388,-0.0492 -0.21453,-0.12879 c -0.11799,-0.0708 -0.249,-0.12888 -0.29114,-0.12901 -0.13778,-4e-4 -0.0804,-0.11648 0.0766,-0.15486 0.18515,-0.0453 0.19137,-0.0918 0.0312,-0.2331 -0.10411,-0.0918 -0.18985,-0.10207 -0.58264,-0.0697 -0.62845,0.0518 -1.85568,-0.0534 -2.70033,-0.2313 -0.38473,-0.0811 -0.76584,-0.14736 -0.84692,-0.14736 -0.3879,0 -1.79273,-0.47726 -2.02668,-0.68853 -0.0899,-0.0812 -0.20245,-0.14758 -0.25014,-0.14758 -0.11727,0 -0.51991,-0.19024 -0.51991,-0.24565 0,-0.0786 0.66371,-0.28923 1.11993,-0.35543 1.32949,-0.1929 2.09139,-0.3188 2.55765,-0.42263 1.22909,-0.27368 2.48825,-0.729 3.46934,-1.25451 l 0.55792,-0.29886 0.20321,-0.45056 c 0.17831,-0.39535 0.55768,-1.05346 0.87116,-1.51124 l 0.10225,-0.1493 -1.4527,-0.002 c -1.34553,-0.002 -1.47379,-0.0117 -1.73867,-0.12879 -0.15728,-0.0695 -0.33503,-0.19938 -0.395,-0.28855 -0.10504,-0.15621 -0.1048,-0.16514 0.007,-0.24448 0.0636,-0.0453 0.18937,-0.0823 0.27957,-0.0823 0.0902,0 0.29868,-0.053 0.4633,-0.11775 0.16463,-0.0648 0.58765,-0.18755 0.94005,-0.27287 1.54351,-0.37369 1.9189,-0.54483 2.73038,-1.2448 0.35867,-0.30937 0.1293,-0.26808 -0.30767,0.0554 -0.80155,0.59336 -1.93901,1.00749 -2.57528,0.93761 l -0.29135,-0.032 0.17741,-0.0914 c 0.0976,-0.0503 0.50313,-0.23418 0.90122,-0.4087 0.71107,-0.31173 1.57468,-0.80658 1.57468,-0.90229 0,-0.0555 -0.57069,-0.49125 -0.6434,-0.49125 -0.0421,0 -0.15818,-0.0942 -0.75101,-0.60937 -0.0813,-0.0706 -0.13791,-0.18892 -0.13791,-0.28814 0,-0.13905 -0.15465,-0.31144 -0.88943,-0.99151 -0.88274,-0.81702 -1.13324,-1.14046 -1.13324,-1.46319 0,-0.11445 -0.0819,-0.2041 -0.35142,-0.38459 -0.21643,-0.14495 -0.40655,-0.33274 -0.49494,-0.48886 l -0.14351,-0.25349 h 0.25296 c 0.17096,0 0.71997,0.17423 1.69366,0.53749 0.79238,0.29563 1.46375,0.5375 1.49192,0.5375 0.18546,0 0.0254,-0.49939 -0.30744,-0.95952 -0.061,-0.0843 -0.19275,-0.35305 -0.29279,-0.59722 -0.10004,-0.24417 -0.28279,-0.60519 -0.4061,-0.80227 -0.32657,-0.52194 -1.07357,-2.03482 -1.43018,-2.89652 -0.65343,-1.57893 -1.06673,-3.23544 -1.20696,-4.83748 l -0.0392,-0.44792 0.40845,0.68681 c 0.44311,0.74507 1.11679,2.03977 1.59456,3.06448 0.16559,0.35516 0.31015,0.61919 0.32126,0.58674 0.0111,-0.0324 -0.12993,-0.39022 -0.31339,-0.79505 -0.59345,-1.30949 -0.88093,-2.35738 -0.93884,-3.42219 -0.0253,-0.46566 -0.0855,-0.76432 -0.27096,-1.34508 -0.63026,-1.97366 -0.85657,-3.13242 -0.89229,-4.56874 l -0.0267,-1.07499 0.2451,0.45789 c 0.3686,0.68859 0.89751,1.92524 1.60493,3.75251 0.47427,1.22502 0.64048,1.59605 0.65413,1.46015 0.0113,-0.11226 -0.1567,-0.66253 -0.43753,-1.43333 -1.07809,-2.95911 -1.50126,-4.67879 -1.54966,-6.29763 l -0.0277,-0.92569 0.19181,0.38819 c 0.16119,0.3262 0.49615,1.12722 0.78668,1.88124 0.0578,0.1501 0.0637,0.10679 0.0362,-0.26685 -0.12594,-1.7117 -0.15085,-2.56287 -0.16436,-5.61576 -0.0186,-4.19729 0.0344,-4.82638 0.65896,-7.82358 0.14716,-0.70622 0.39397,-2.02112 0.54846,-2.922 0.34672,-2.02175 0.44946,-2.49744 1.09745,-5.08075 0.72016,-2.87101 1.31974,-4.76746 2.17763,-6.88776 0.3102,-0.76667 0.66759,-1.80721 0.93138,-2.71168 0.76643,-2.62796 1.06601,-3.29541 2.49472,-5.55819 1.63672,-2.59223 2.04954,-3.12621 3.45179,-4.46495 1.20231,-1.14785 1.57898,-1.38128 2.9491,-1.82763 0.6763,-0.22033 0.78106,-0.23843 1.2705,-0.21957 0.47547,0.0183 0.58389,0.0455 0.99784,0.25034 0.75674,0.37444 2.34225,1.49045 2.85215,2.0076 0.14693,0.14902 0.46333,0.58 0.70311,0.95774 0.23979,0.37774 0.67539,1.05065 0.96801,1.49534 0.29262,0.4447 0.86135,1.41219 1.26384,2.14999 0.40249,0.7378 1.00337,1.74211 1.3353,2.2318 0.33193,0.48969 0.9121,1.47062 1.28928,2.17985 0.37717,0.70923 0.85658,1.5956 1.06535,1.9697 0.20878,0.37411 0.86521,1.61035 1.45875,2.74721 1.36136,2.60757 1.82826,3.45146 2.28259,4.12565 0.45239,0.67129 1.05361,1.81833 1.64435,3.13719 0.25011,0.5584 0.43766,0.92121 0.41677,0.80625 -0.0209,-0.11497 -0.10765,-0.57184 -0.1928,-1.01528 -0.0851,-0.44343 -0.1688,-1.10187 -0.18588,-1.46318 l -0.031,-0.65695 0.27102,0.27999 c 0.68906,0.71184 1.14641,1.97875 2.01178,5.57277 l 0.20132,0.83611 0.0809,-0.32847 c 0.0445,-0.18066 0.10647,-0.55215 0.13772,-0.82552 0.0545,-0.47659 0.25547,-1.02587 0.37538,-1.02587 0.0307,0 0.0561,0.12766 0.0565,0.28368 0.002,0.69137 0.19166,1.92842 0.41862,2.72458 0.22181,0.77814 0.31212,0.91016 0.31854,0.46567 0.002,-0.15817 0.004,-0.15758 0.22002,0.0795 l 0.21772,0.23888 -0.0341,-0.23888 c -0.11205,-0.78532 -0.16684,-1.41793 -0.14971,-1.72854 l 0.0196,-0.35492 0.31385,0.44451 c 0.49187,0.69663 0.764,1.26969 1.0312,2.1715 l 0.14159,0.47786 0.0362,-0.29618 c 0.0199,-0.1629 0.0688,-0.54653 0.10871,-0.85252 l 0.0725,-0.55633 0.20943,0.52647 c 0.21775,0.5474 0.56843,1.84526 0.56947,2.10761 0.001,0.29524 0.54508,1.24349 0.67008,1.16821 0.0274,-0.0165 0.0827,-0.15807 0.12301,-0.31466 0.0403,-0.15658 0.20227,-0.5368 0.35997,-0.84494 l 0.28673,-0.56025 0.13349,0.53039 c 0.0734,0.29171 0.13547,0.71179 0.13791,0.93351 0.004,0.39541 0.007,0.40312 0.16721,0.40312 0.11771,0 0.24523,0.0868 0.46051,0.31354 0.18158,0.19123 0.31534,0.28885 0.34288,0.25024 0.19652,-0.27553 0.40573,-0.50112 0.43678,-0.47099 0.0206,0.02 0.0512,0.21555 0.0681,0.43461 l 0.0306,0.3983 0.42905,-0.02 c 0.23598,-0.011 0.63592,-0.058 0.88875,-0.10451 0.25283,-0.0465 0.46659,-0.0845 0.47502,-0.0845 0.008,0 0.0153,0.0437 0.0153,0.0972 0,0.0788 0.0435,0.0905 0.22985,0.0618 0.3601,-0.0555 2.0344,-0.20871 3.07997,-0.28187 0.52253,-0.0366 2.90306,-0.081 5.29007,-0.0988 4.07938,-0.0304 4.35218,-0.0259 4.54239,0.0739 0.18866,0.099 0.29949,0.10151 1.63604,0.0372 0.78852,-0.0379 2.15342,-0.0689 3.03312,-0.0688 1.52173,1.8e-4 1.60483,-0.006 1.71038,-0.11926 0.14195,-0.15283 0.27921,-0.15114 0.48419,0.006 0.28795,0.2207 0.41467,0.12956 0.77591,-0.55809 0.40276,-0.7667 0.70939,-1.21156 1.029,-1.49291 0.28968,-0.25499 0.68251,-0.46328 0.87378,-0.46328 0.12648,0 0.13164,0.0187 0.0948,0.34341 -0.0214,0.18887 -0.0569,0.40658 -0.0788,0.48379 -0.0327,0.11517 -0.0192,0.13652 0.0752,0.1188 0.0719,-0.0135 0.2267,-0.2231 0.41242,-0.55845 0.38191,-0.68957 0.87009,-1.32205 1.2741,-1.6507 0.17563,-0.14287 0.38027,-0.31546 0.45476,-0.38355 l 0.13542,-0.12379 0.0387,0.44634 c 0.0213,0.24549 0.0387,0.59249 0.0387,0.77111 v 0.32477 l 0.18858,-0.15461 c 0.10372,-0.085 0.20715,-0.1549 0.22985,-0.15526 0.0227,-3.5e-4 0.14662,-0.1952 0.27538,-0.43298 0.12876,-0.23779 0.30101,-0.51297 0.38278,-0.61151 l 0.14866,-0.17917 3e-4,0.16424 c 1.7e-4,0.0903 0.0274,0.16424 0.0604,0.16424 0.0699,0 0.0842,-0.0581 0.21994,-0.89583 0.12569,-0.77551 0.43487,-1.83797 0.72892,-2.50487 0.26057,-0.59097 0.66864,-1.26691 0.68712,-1.13818 0.007,0.0493 0.0309,0.30015 0.0528,0.55751 l 0.04,0.46792 0.2932,-0.7105 c 0.47557,-1.15238 0.93218,-1.9221 1.47669,-2.48926 0.26221,-0.27312 0.42103,-0.51478 0.60276,-0.91718 0.13571,-0.30049 0.31953,-0.6886 0.40848,-0.86248 0.17148,-0.33518 0.89552,-1.49226 0.9175,-1.46623 0.007,0.008 -0.0248,0.35132 -0.071,0.76191 -0.0972,0.8648 -0.31986,2.0921 -0.57764,3.18449 -0.0994,0.42117 -0.18033,0.79742 -0.17989,0.83611 0.002,0.14605 0.93443,-1.91784 1.31221,-2.9035 0.65193,-1.70095 1.43201,-3.3896 2.08864,-4.52126 0.71874,-1.23871 2.07546,-3.74172 2.57815,-4.75643 0.31151,-0.62879 0.67047,-1.30066 0.79771,-1.49305 0.12723,-0.19239 0.35373,-0.57823 0.50333,-0.85743 0.14961,-0.2792 0.45836,-0.8167 0.68613,-1.19444 0.22776,-0.37774 0.61441,-1.04962 0.85922,-1.49305 0.51968,-0.94133 2.40716,-3.73406 2.77868,-4.11136 0.14042,-0.14261 0.4346,-0.38414 0.65372,-0.53673 0.21912,-0.1526 0.562,-0.40504 0.76194,-0.56099 0.46929,-0.36602 1.3935,-0.90168 1.76854,-1.02501 0.1613,-0.0531 0.4859,-0.0965 0.72132,-0.0965 0.54403,0 1.55469,0.30651 2.40192,0.72845 0.50809,0.25304 0.72077,0.41075 1.42736,1.05837 1.14088,1.04568 1.77391,1.75871 2.5228,2.84164 0.42711,0.61761 2.0303,3.17532 2.31257,3.68943 0.4921,0.89629 0.90142,2.02011 1.53089,4.20317 0.15302,0.53067 0.43317,1.35035 0.62257,1.82152 0.63966,1.59129 0.8821,2.25596 1.28734,3.52926 0.5304,1.66661 0.67902,2.20721 1.25195,4.55377 0.55518,2.2739 0.58932,2.43617 0.91932,4.36996 0.13549,0.79396 0.39681,2.17802 0.58071,3.07568 0.53729,2.62264 0.65279,3.90478 0.6366,7.06681 -0.0175,3.41593 -0.0823,5.14856 -0.25582,6.83816 -0.17262,1.68086 -0.3126,3.5773 -0.26732,3.62143 0.016,0.0156 0.30458,-0.49051 0.64128,-1.12467 0.71705,-1.3505 1.23744,-2.25685 1.23901,-2.15794 0.003,0.19004 -0.5909,2.33071 -0.90919,3.27698 -0.44419,1.32057 -0.93539,2.52895 -1.94108,4.77514 -0.73031,1.63114 -1.15973,2.72779 -1.11703,2.85262 0.0104,0.0303 0.48689,-0.8795 1.05892,-2.02183 0.57203,-1.14233 1.30569,-2.5625 1.63034,-3.15595 0.71028,-1.29833 1.73134,-3.03692 1.6859,-2.87065 -0.018,0.0657 -0.0784,0.38819 -0.13428,0.71667 -0.0559,0.32847 -0.23896,1.12128 -0.40678,1.76179 -0.16782,0.64052 -0.37201,1.47364 -0.45376,1.85138 -0.18481,0.85391 -0.70838,2.91421 -1.16103,4.56874 -0.50496,1.84568 -1.16346,3.81376 -1.95829,5.85275 -0.0896,0.22993 -0.13787,0.39118 -0.10719,0.35833 0.0751,-0.0805 1.27253,-2.21579 1.55726,-2.77707 0.12497,-0.24635 0.39593,-0.93166 0.60214,-1.52291 0.53959,-1.5472 1.1786,-3.17754 1.47469,-3.76249 0.0538,-0.10623 0.0573,-0.10293 0.0317,0.0299 -0.0158,0.0821 -0.0592,0.39118 -0.0964,0.68681 -0.12483,0.99186 -0.73429,3.76338 -1.07031,4.86734 -0.45951,1.5096 -1.45359,3.69329 -2.47406,5.4347 -0.20211,0.34489 -0.35774,0.6367 -0.34585,0.64846 0.0119,0.0118 0.18182,-0.0714 0.37764,-0.18488 0.19581,-0.11345 0.53531,-0.30234 0.75443,-0.41976 0.47197,-0.25292 1.19804,-0.83302 2.56461,-2.04904 0.5509,-0.49021 1.14391,-1.00552 1.3178,-1.14513 l 0.31616,-0.25383 0.0185,0.1704 c 0.0221,0.20336 -0.19289,0.69758 -0.51378,1.18095 -0.12806,0.19292 -0.38132,0.6195 -0.5628,0.94797 -0.65297,1.1819 -1.52831,2.36907 -2.53712,3.44099 l -0.54053,0.57433 0.47423,0.21085 c 0.8349,0.3712 1.64885,0.58251 3.38565,0.87893 1.20003,0.20481 2.39043,0.47432 2.39043,0.54121 0,0.0608 -0.45496,0.26347 -0.84394,0.376 -0.17762,0.0514 -0.60514,0.12667 -0.95004,0.1673 -0.49072,0.0578 -0.66464,0.10378 -0.79973,0.2114 -0.43653,0.34777 -2.03176,0.5116 -3.39768,0.34896 -0.10956,-0.0131 -0.1992,-0.005 -0.1992,0.0179 0,0.0504 1.12524,0.71447 1.59159,0.93925 1.15067,0.55464 2.42177,0.94285 4.10365,1.25331 1.41174,0.26059 2.21223,0.44852 2.88577,0.67746 0.48069,0.1634 0.50878,0.18166 0.36308,0.23606 -0.0868,0.0324 -0.39783,0.21136 -0.69108,0.3976 -1.16439,0.73954 -2.94287,1.43541 -4.33026,1.69432 -0.63434,0.11838 -1.79572,0.23735 -2.57431,0.26371 l -0.3984,0.0135 0.70487,0.41187 c 0.38767,0.22653 1.21513,0.66039 1.83879,0.96412 0.95066,0.463 1.29737,0.59747 2.14525,0.83203 1.31316,0.36327 2.61481,0.76379 3.16742,0.9746 l 0.43987,0.1678 -0.34793,0.0998 c -0.80081,0.22965 -1.01995,0.25257 -2.40126,0.25116 -1.17579,-0.001 -1.47887,-0.0209 -2.05596,-0.13382 -1.44532,-0.28272 -2.66551,-0.6902 -3.87413,-1.29374 -0.34554,-0.17255 -0.62826,-0.2933 -0.62826,-0.26833 0,0.0984 0.78205,0.71652 1.2048,0.9522 0.59951,0.33422 1.17411,0.55637 2.16632,0.83753 0.4551,0.12896 0.96536,0.28599 1.13392,0.34896 l 0.30646,0.11449 -0.24517,0.0489 c -0.83633,0.16664 -2.22514,-0.10899 -3.35736,-0.66631 -0.66015,-0.32495 -0.63858,-0.23794 0.10546,0.42556 1.4348,1.2795 2.79367,1.97139 5.85075,2.97904 1.49033,0.49123 2.63585,0.90235 3.31592,1.19008 0.25284,0.10697 0.72986,0.25697 1.06007,0.33334 0.3302,0.0764 0.57843,0.15825 0.55163,0.18195 -0.28771,0.25442 -2.26357,0.63731 -3.69566,0.71615 -0.58994,0.0325 -1.36351,0.0858 -1.71903,0.11843 -0.35552,0.0327 -0.79545,0.0594 -0.97762,0.0594 -0.20118,0 -0.30836,0.0214 -0.27299,0.0545 0.10688,0.1 1.67554,0.71615 2.68106,1.05315 1.27374,0.42689 2.24112,0.67031 4.01493,1.010266 0.78532,0.15052 1.59182,0.31093 1.79221,0.35648 0.20039,0.0456 0.4241,0.0676 0.49713,0.049 0.0844,-0.0215 0.11824,-0.0109 0.0929,0.029 -0.0442,0.0697 0.0823,0.13197 0.28622,0.141 0.0731,0.003 -0.0663,0.0696 -0.30979,0.14745 -0.26355,0.0843 -0.61079,0.25955 -0.85811,0.43314 -1.06964,0.7508 -3.21971,1.77399 -5.83984,2.77909 -0.97149,0.37267 -1.37304,0.56504 -2.14525,1.02772 -1.52214,0.91202 -2.7397,1.48266 -4.0649,1.90513 l -0.60484,0.19282 0.38881,0.27223 c 0.21385,0.14972 0.4492,0.32808 0.52299,0.39635 0.0738,0.0683 0.25378,0.15025 0.39998,0.18217 0.1462,0.0319 0.36057,0.0969 0.47638,0.14431 l 0.21056,0.0863 -0.2319,0.0944 c -0.47098,0.19175 -1.08368,0.3383 -2.00513,0.47961 -0.58491,0.0897 -1.09736,0.20549 -1.34384,0.30364 -1.15018,0.45802 -2.72786,0.85714 -3.79199,0.95931 -0.67713,0.065 -0.58517,0.13883 0.32894,0.26403 0.90463,0.1239 1.34858,0.0877 2.91142,-0.2371 1.46931,-0.30541 1.78627,-0.35946 2.36722,-0.40371 0.34121,-0.026 0.78252,-0.0332 0.98069,-0.0161 l 0.36031,0.0312 -0.3984,0.27802 c -0.39013,0.27224 -0.73144,0.43927 -1.53233,0.74985 -0.21912,0.085 -0.51997,0.23532 -0.66855,0.33411 -0.14858,0.0988 -0.49335,0.24993 -0.76616,0.33588 -0.48907,0.15408 -1.08759,0.51312 -2.57998,1.54767 -1.56279,1.08335 -3.56643,2.00522 -5.27119,2.42525 -0.33712,0.0831 -0.68189,0.15208 -0.76617,0.15338 -0.11603,0.002 -0.13091,0.0147 -0.0613,0.0532 0.0506,0.028 0.74011,0.0677 1.53233,0.0882 0.79221,0.0205 1.74163,0.0549 2.10983,0.0764 l 0.66945,0.0391 -0.33234,0.14556 c -1.11646,0.48903 -2.38849,0.73106 -3.84214,0.73106 H 345.022 l 0.45399,0.30893 c 1.24334,0.84608 2.62257,2.14731 3.01304,2.84265 l 0.16863,0.30028 -0.4751,-0.17437 c -0.34644,-0.12716 -0.53522,-0.16488 -0.69715,-0.13933 -0.14278,0.0225 -0.30692,-2.7e-4 -0.4597,-0.0639 -1.0018,-0.41694 -1.90493,-0.51182 -3.70068,-0.3888 -0.4551,0.0312 -1.27755,0.0631 -1.82767,0.0709 l -1.00021,0.0142 -0.0802,0.18238 c -0.0441,0.10031 -0.15944,0.25342 -0.2563,0.34023 -0.19572,0.17544 -0.85172,0.52896 -0.98154,0.52896 -0.19513,0 -0.0615,0.11229 0.17719,0.14883 0.25561,0.0391 1.95586,0.49776 1.99816,0.53898 0.0248,0.0241 -0.33284,0.1221 -0.7661,0.20989 -0.16354,0.0331 -0.75499,0.077 -1.31434,0.0974 -1.09932,0.0401 -2.07548,-0.0254 -3.38576,-0.2272 -0.43255,-0.0666 -0.80037,-0.10757 -0.81738,-0.091 -0.017,0.0166 0.033,0.0634 0.11108,0.10417 0.0781,0.0407 0.68036,0.42188 1.33837,0.84702 1.2148,0.78488 2.11324,1.26368 2.94323,1.56852 0.47068,0.17287 0.81727,0.44447 0.75829,0.59422 -0.052,0.13193 -0.41756,0.2703 -0.71418,0.2703 -0.16929,0 -0.41236,0.0621 -0.63431,0.16209 -0.32361,0.14577 -0.44436,0.16449 -1.19924,0.18586 -0.71234,0.0202 -1.65754,-0.0399 -2.2559,-0.14337 -0.10061,-0.0174 -0.0809,7.2e-4 0.0574,0.0528 l 0.21063,0.0793 -0.27192,0.0669 c -0.55444,0.13644 -0.85133,0.19373 -1.00394,0.19373 -0.0862,0 -0.15673,0.0269 -0.15673,0.0597 0,0.0328 0.0215,0.0597 0.0479,0.0597 0.0263,0 0.20872,0.098 0.40529,0.21782 0.40936,0.24949 0.38984,0.28827 -0.1931,0.38369 -0.62077,0.1016 -1.84169,0.0685 -3.5086,-0.0952 -1.83026,-0.17968 -2.32544,-0.17241 -3.00336,0.0441 l -0.4597,0.14683 0.42019,0.12912 c 0.2311,0.071 0.47137,0.12913 0.53394,0.12913 0.0626,0 0.34237,0.0507 0.62179,0.11268 0.27943,0.062 0.61224,0.13053 0.7396,0.15233 0.12735,0.0218 0.21536,0.0651 0.19558,0.0963 -0.0209,0.033 0.10024,0.0577 0.28944,0.0591 0.30836,0.002 0.31738,0.007 0.17217,0.0829 -0.0843,0.0443 -0.37388,0.12522 -0.64357,0.17991 -0.26969,0.0547 -0.54396,0.12839 -0.60948,0.16376 -0.0655,0.0354 -0.39651,0.0988 -0.73552,0.14102 -0.71343,0.0888 -2.36032,0.36964 -3.4665,0.59117 -0.42139,0.0844 -1.00061,0.196 -1.28715,0.24803 -0.39441,0.0716 -0.55379,0.12958 -0.65596,0.23856 -0.16057,0.17126 -0.18676,0.17635 -0.21342,0.0414 -0.029,-0.14658 -0.41994,0.21032 -1.05652,0.96446 -0.57785,0.68456 -0.83893,1.0654 -1.16962,1.70611 -0.12715,0.24635 -0.47964,0.8376 -0.78332,1.31388 -0.65235,1.02314 -1.74744,2.90273 -2.15731,3.70277 -0.5395,1.05303 -1.4642,2.23514 -2.03157,2.59709 -0.19804,0.12633 -0.48419,0.34003 -0.63589,0.47488 -0.3748,0.33318 -1.41592,1.15396 -1.76706,1.39309 -0.15744,0.10722 -0.53449,0.29427 -0.83789,0.41566 -0.44353,0.17745 -0.6177,0.28609 -0.88875,0.55435 -0.84941,0.84067 -2.70496,2.05966 -4.64331,3.05038 -0.10976,0.0561 -0.46832,0.14795 -0.7968,0.20411 -0.32849,0.0562 -0.80017,0.1396 -1.04818,0.18542 -0.41238,0.0762 -1.6688,0.11813 -1.73075,0.0578 z m -47.80275,-32.01532 c 0,-0.0164 -0.0138,-0.0299 -0.0307,-0.0299 -0.0169,0 -0.0306,0.0134 -0.0306,0.0299 0,0.0164 0.0138,0.0299 0.0306,0.0299 0.0169,0 0.0307,-0.0134 0.0307,-0.0299 z m 60.85966,-9.14475 c 0.61126,-0.0909 1.67294,-0.33876 2.63988,-0.61628 0.32025,-0.0919 0.74714,-0.18675 0.94865,-0.21075 0.20914,-0.0249 0.52479,-0.12164 0.73551,-0.2254 0.20303,-0.1 1.06651,-0.40411 1.91884,-0.67586 1.62157,-0.517 2.51226,-0.89302 2.9247,-1.2347 0.13484,-0.11171 0.48107,-0.34098 0.76938,-0.50948 1.15106,-0.672709 2.46459,-1.636799 3.49048,-2.561919 0.28654,-0.25839 0.75703,-0.66124 1.04551,-0.89522 1.45828,-1.18271 4.63576,-4.64436 5.70876,-6.2193 0.4206,-0.61735 1.50338,-2.69768 1.98037,-3.80485 0.12736,-0.29562 0.41773,-0.94062 0.64526,-1.43333 0.8029,-1.73864 1.23773,-2.81416 1.47411,-3.64605 0.23941,-0.84253 0.26932,-0.762 -0.35195,-0.94763 -0.29807,-0.0891 -0.81777,-0.27066 -1.15488,-0.40355 -0.78794,-0.31061 -2.26022,-0.79755 -2.85012,-0.94265 -0.57161,-0.14059 -2.403,-0.44483 -3.46306,-0.57529 -1.44744,-0.17815 -4.18863,-0.10389 -5.76154,0.15608 -1.21902,0.20148 -2.56267,0.71985 -3.55204,1.37036 -0.6646,0.43697 -3.28441,2.58008 -3.80615,3.11358 -0.66853,0.68359 -1.56327,1.97265 -2.10989,3.03973 -0.29768,0.58111 -0.79955,1.41956 -0.89674,1.49815 -0.0471,0.0381 -0.0856,0.0944 -0.0856,0.12522 0,0.0308 -0.14988,0.39702 -0.33306,0.81386 -0.82847,1.88522 -1.56893,4.02581 -1.66081,4.80125 -0.0206,0.17399 -0.0762,0.49326 -0.12348,0.70947 -0.19129,0.87447 -0.28539,1.69647 -0.32419,2.83187 -0.0547,1.6017 0.0161,3.220569 0.17288,3.952249 0.0679,0.31669 0.12346,0.72604 0.12352,0.90968 1.5e-4,0.42293 0.25598,1.46469 0.39697,1.61649 0.12117,0.13046 0.43105,0.12307 1.49872,-0.0357 z m -23.43793,0.0102 c 0.27189,-0.11069 0.31146,-0.2212 0.3651,-1.01941 0.0242,-0.36064 0.11081,-0.92445 0.19239,-1.25292 0.32504,-1.30876 0.33523,-4.636539 0.0194,-6.330529 -0.0674,-0.36132 -0.16394,-0.91225 -0.21459,-1.2243 -0.14727,-0.90725 -0.35728,-1.58715 -1.00344,-3.24861 -0.62953,-1.61872 -1.01021,-2.51017 -1.13756,-2.66387 -0.08,-0.0966 -0.46263,-0.75732 -1.07203,-1.85138 -0.49114,-0.88175 -1.17459,-1.88179 -1.68222,-2.46149 -0.35506,-0.40546 -2.65773,-2.34392 -3.66145,-3.08231 -1.25685,-0.92461 -2.84606,-1.51797 -4.58753,-1.71284 -1.90322,-0.21298 -3.98439,-0.22421 -5.39618,-0.0291 -0.80749,0.11158 -2.28223,0.35005 -2.75578,0.44562 -0.65219,0.13162 -2.09944,0.58817 -3.03401,0.9571 -0.43824,0.17301 -0.9011,0.34701 -1.02857,0.38669 -0.25307,0.0788 -0.76004,0.34087 -0.80918,0.41834 -0.0169,0.0267 0.0253,0.26814 0.0939,0.53657 0.20583,0.80583 0.62413,1.864 1.3939,3.52617 0.20537,0.44343 0.52384,1.14218 0.70772,1.55277 0.99826,2.229 1.57785,3.3159 2.27266,4.26191 0.61293,0.83454 2.79607,3.31817 3.80398,4.32759 0.50492,0.50568 1.18068,1.13752 1.50168,1.40411 0.321,0.26659 0.86165,0.73009 1.20145,1.03001 0.9311,0.82185 1.78036,1.4618 2.80747,2.11555 0.50959,0.324359 1.09033,0.705559 1.29054,0.847129 0.79964,0.56542 1.34947,0.80043 3.23931,1.38455 0.68135,0.2106 1.44146,0.47825 1.68913,0.59478 0.25899,0.12186 0.59753,0.22886 0.79681,0.25185 0.19057,0.022 0.76104,0.1559 1.26771,0.29758 0.77427,0.21652 1.99561,0.49106 2.60313,0.58515 0.36868,0.0571 0.93889,0.0337 1.13628,-0.0467 z m 64.93756,-47.690909 c 0,-0.0438 0.0184,-0.0617 0.0409,-0.0398 0.0225,0.0219 0.0225,0.0577 0,0.0796 -0.0225,0.0219 -0.0409,0.004 -0.0409,-0.0398 z m -70.97728,-17.11037 c 0,-0.0164 0.0138,-0.0299 0.0307,-0.0299 0.0169,0 0.0306,0.0134 0.0306,0.0299 0,0.0164 -0.0138,0.0299 -0.0306,0.0299 -0.0169,0 -0.0307,-0.0134 -0.0307,-0.0299 z"
        id="path121-3-5"
        sodipodi:nodetypes="csssssssssssssscssssssssssssssssssssscsssscssssssssssssssssssscsssscsscsssssscsssssscsssccssssssccssssssssssscssssssssssccsscsssscssscssssssssssssscssccsscsssssscsssssssssscsssssssscssssssscssssscssssssssssssssssssssssssssscsscssscscscsscsscsscscssscscssssccsssssssssscsssssssssscsscsssscsssssccssssccscssssssssssssssssssssssssssssssssssssssssssssssssssscsssscssssssssssssssscsssscscsssssscsssssssssssssssscssssscsssscsssssssccsssssscssscsscsscsscsscsssssssssssssssssscsssssssscsssssccsssssssssssssssssssccssssssssssssssssssssssssssssssssssssssssssssssssssssscssssssssssssssssssssssss" />
    </g>
  </g>
</svg>